<svg width="143" height="58" viewBox="0 0 143 58" fill="none" xmlns="http://www.w3.org/2000/svg">
<path d="M21.9334 35.3802C22.8486 35.3802 23.7067 34.9994 24.4225 34.4448V28.5679C21.4479 28.8603 19.7305 30.3803 19.7305 32.8077C19.7305 34.2977 20.4182 35.3802 21.9334 35.3802ZM31.2293 35.9064V36.1989L25.7086 37.4264H25.4229L24.5941 35.1764C23.0202 36.6664 21.1621 37.4264 19.3592 37.4264C16.6707 37.4264 14.8682 35.9947 14.8682 33.8314C14.8682 30.4391 18.6434 28.1587 24.4225 27.9549V26.0541C24.4225 24.0946 22.8486 22.7796 20.4463 22.7796C18.8725 22.7796 18.9311 22.7139 17.5288 23.2102L17.4158 22.8006C19.4166 21.3977 20.8173 20.7633 23.2196 20.7633C26.7383 20.7633 29.2845 22.6345 29.2845 25.4692V34.971L31.2293 35.9064Z" fill="#231F20"/>
<path d="M29.8281 29.3871C29.8281 24.2118 33.2894 20.7623 38.3805 20.7623C40.4399 20.7623 42.4989 21.2885 43.8426 21.9902L43.6432 25.353L43.3277 25.2942L38.6959 21.6393C36.2347 21.6393 34.8047 24.1251 34.8047 28.3046C34.8047 32.4574 36.6647 35.2336 39.6964 35.2336C41.2405 35.2336 43.0712 34.7961 44.2444 34.0645L44.5306 34.3869C42.8422 36.0524 40.6393 37.4269 37.2644 37.4269C32.8027 37.4269 29.8281 34.2115 29.8281 29.3871Z" fill="#231F20"/>
<path d="M61.0556 35.5775V35.9073L55.8576 37.4261H55.5714L54.7133 35.0886C52.996 36.6374 50.9952 37.4261 49.1648 37.4261C46.3897 37.4261 44.3877 35.5549 44.3877 32.72V22.6864L48.9639 21.7495H49.2501V32.1354C49.2501 34.0066 50.3076 35.2341 51.9107 35.2341C52.996 35.2341 53.8259 34.8832 54.5714 34.2403V23.3056L52.8259 22.2831V21.9906L59.1461 20.7616H59.4319V34.9704L61.0556 35.5775Z" fill="#231F20"/>
<path d="M88.7796 36.8419V37.1344H80.2565V36.8419L81.9727 35.9649V26.0538C81.9727 24.183 80.8855 22.9551 79.2546 22.9551C78.1107 22.9551 77.2526 23.3647 76.4798 24.0963C76.5955 24.5039 76.6514 24.973 76.6514 25.4693V35.9649L78.511 36.8419V37.1344H70.0728V36.8419L71.789 35.9649V26.0538C71.789 24.183 70.7022 22.9551 69.0728 22.9551C68.0138 22.9551 67.1835 23.306 66.4692 23.9193V35.9349L68.3293 36.8419V37.1344H59.8047V36.8419L61.6072 35.9649V23.306L59.8618 22.2823V21.9898L65.7535 20.7619H66.0396L66.3254 23.0722C68.0431 21.5522 70.0158 20.7619 71.8183 20.7619C73.8484 20.7619 75.4501 21.7261 76.1936 23.3359C77.9962 21.6689 80.0849 20.7619 82.0005 20.7619C84.8035 20.7619 86.8347 22.6331 86.8347 25.4693V35.9349L88.7796 36.8419Z" fill="#231F20"/>
<path d="M92.4131 27.8963L97.9338 27.6341C97.9338 23.5113 97.0742 21.6401 95.2438 21.6401C93.4135 21.6401 92.5276 23.628 92.4131 27.8963ZM100.529 34.7234L100.787 35.0442C99.0411 36.7112 98.3622 37.4265 94.845 37.4265C90.383 37.4265 87.4072 34.2107 87.4072 29.3879C87.4072 24.213 90.6676 20.7635 95.5018 20.7635C99.8786 20.7635 102.766 23.8622 102.766 28.5108H92.4131V28.8033C92.4131 32.662 94.3009 35.2344 97.4189 35.2344C99.0205 35.2344 99.3273 35.455 100.529 34.7234Z" fill="#231F20"/>
<path d="M120.645 36.8419V37.1344H112.035V36.8419L113.838 35.9649V26.0538C113.838 24.183 112.721 22.9551 111.035 22.9551C109.889 22.9551 109.003 23.3359 108.232 23.9777V35.9649L110.175 36.8419V37.1344H101.565V36.8419L103.368 35.9649V23.306L101.623 22.2823V21.9898L107.516 20.7619H107.802L108.088 23.1006C109.861 21.5806 111.893 20.7619 113.78 20.7619C116.64 20.7619 118.7 22.6331 118.7 25.4693V35.9649L120.645 36.8419Z" fill="#231F20"/>
<path d="M125.369 37.3755C123.819 37.3755 122.827 36.3876 122.827 34.8824C122.827 33.4266 123.819 32.4402 125.369 32.4402C126.919 32.4402 127.909 33.4266 127.909 34.8824C127.909 36.3876 126.919 37.3755 125.369 37.3755Z" fill="#EF4136"/>
</svg>
