<svg width="213" height="68" viewBox="0 0 213 68" fill="none" xmlns="http://www.w3.org/2000/svg">
<g clip-path="url(#clip0_549_2135)">
<path d="M179.953 24.385C182.044 24.3765 184.077 25.1007 185.719 26.4395L185.808 26.5122L185.889 26.5773C186.375 26.9895 186.82 27.4509 187.218 27.9546L209.906 51.4149V40.9281L194.732 25.219L191.304 21.6763C189.198 19.5028 186.566 17.9541 183.683 17.1923C174.575 14.7859 165.263 20.6662 163.372 30.2004C162.58 34.1893 163.159 38.3386 165.008 41.9343C166.857 45.5298 169.861 48.3466 173.502 49.9001C177.144 51.4534 181.195 51.6461 184.959 50.445C188.722 49.2439 191.964 46.7241 194.124 43.3193L194.494 42.6804L194.627 42.4471L195.579 40.8593L190.327 35.4265L190.301 35.4609L187.877 39.2868C187.006 40.7136 185.789 41.8806 184.348 42.6725C182.907 43.4649 181.292 43.8552 179.66 43.8048C178.029 43.7545 176.439 43.2653 175.046 42.3855C173.653 41.5061 172.507 40.2662 171.72 38.7882C170.932 37.3106 170.531 35.6462 170.555 33.9593C170.58 32.2726 171.03 30.6217 171.86 29.1692C172.691 27.7171 173.873 26.5138 175.291 25.6779C176.709 24.8423 178.313 24.4033 179.946 24.4041L179.953 24.385Z" fill="#004882"/>
<path d="M203.754 29.8102L203.766 29.7948L212.011 16.3124H203.51L198.557 24.4118L198.535 24.4462L203.754 29.8102Z" fill="#C20C38"/>
<path d="M2.87072 24.5692C4.02519 22.0617 5.83873 19.9404 8.10414 18.4478C10.323 17.0179 12.8919 16.2757 15.5064 16.3092C17.631 16.2645 19.7328 16.7695 21.6206 17.7784C23.2859 18.6641 24.6916 19.9943 25.6919 21.6309V16.8027H35.8071V50.9258H30.3479C29.1111 50.9217 27.9263 50.4106 27.0535 49.5048C26.1807 48.5989 25.691 47.3722 25.6919 46.0937C24.6642 47.7218 23.2481 49.0486 21.58 49.9463C19.6895 50.9586 17.5832 51.4638 15.4546 51.4155C12.8574 51.4408 10.309 50.6859 8.11901 49.2424C5.85197 47.7284 4.03931 45.5897 2.88549 43.0675C1.60242 40.3969 0.960938 37.3082 0.960938 33.8011C0.960938 30.294 1.59757 27.2167 2.87072 24.5692ZM23.5749 27.6873C22.9142 26.9738 22.1211 26.4055 21.243 26.0162C20.3649 25.627 19.4198 25.4249 18.4643 25.4221C17.5089 25.4192 16.5627 25.6157 15.6824 25.9996C14.8022 26.3836 14.0059 26.9472 13.3412 27.6568C11.9521 29.1463 11.2574 31.1944 11.2574 33.8011C11.2574 36.4078 11.957 38.4776 13.356 40.0105C14.0114 40.7333 14.8028 41.31 15.6816 41.7052C16.5604 42.1004 17.5081 42.3057 18.4665 42.3086C19.4248 42.3114 20.3736 42.1118 21.2546 41.7219C22.1356 41.3319 22.9302 40.76 23.5896 40.0411C24.9886 38.5338 25.6894 36.4741 25.6919 33.8623C25.6943 31.2505 24.9886 29.1922 23.5749 27.6873ZM48.8059 0.895264V50.9264H38.6907V5.67L48.8059 0.895264ZM65.9053 17.7782C67.7838 16.7659 69.8796 16.2618 71.9974 16.3129C74.6119 16.2795 77.1808 17.0217 79.3997 18.4516C81.6653 19.9451 83.4798 22.066 84.6368 24.573C85.9174 27.2206 86.5576 30.2978 86.5576 33.8049C86.5576 37.312 85.9174 40.4008 84.6368 43.0713C83.4805 45.5929 81.6669 47.7313 79.3997 49.2461C77.1882 50.6971 74.6165 51.4521 71.9974 51.4193C69.8893 51.4634 67.8044 50.9582 65.935 49.9501C64.2779 49.0635 62.8637 47.7596 61.8229 46.1587V67.2011H51.7041V16.8027H61.8229V21.6309C62.8441 20.0083 64.2493 18.6821 65.9053 17.7782ZM74.1774 27.6567C73.5116 26.9321 72.7069 26.3591 71.8146 25.9744C70.9224 25.5897 69.9623 25.4017 68.9958 25.4224C68.0366 25.4071 67.085 25.6009 66.203 25.9912C65.3211 26.3814 64.5286 26.9593 63.8771 27.6873C62.4781 29.1947 61.7785 31.253 61.7785 33.8623C61.7785 36.4715 62.4781 38.5312 63.8771 40.0411C64.5409 40.7584 65.3388 41.3288 66.2223 41.7175C67.1059 42.1062 68.0567 42.3052 69.017 42.3024C69.9772 42.2996 70.9269 42.095 71.8083 41.701C72.6897 41.307 73.4844 40.7319 74.1441 40.0105C75.5628 38.4801 76.2722 36.4104 76.2722 33.8011C76.2722 31.1919 75.574 29.1437 74.1774 27.6567ZM118.853 20.3192C121.146 22.9081 122.292 26.4649 122.292 30.9897V50.9264H112.226V32.3976C112.226 30.102 111.654 28.3282 110.512 27.0758C109.369 25.8235 107.83 25.1858 105.896 25.1629C103.964 25.1629 102.426 25.8005 101.281 27.0758C100.136 28.3511 99.5646 30.125 99.5672 32.3976V50.9264H89.4483V5.67L99.5672 0.895264V21.3867C100.651 19.8302 102.104 18.5879 103.786 17.7789C105.651 16.8626 107.695 16.4031 109.76 16.436C113.535 16.436 116.567 17.7304 118.853 20.3192ZM127.102 24.5697C128.259 22.0627 130.074 19.9418 132.339 18.4483C134.558 17.0184 137.127 16.2762 139.742 16.3096C141.869 16.2615 143.974 16.7652 145.864 17.7749C147.529 18.6599 148.935 19.9903 149.935 21.6276V16.8031H160.042V50.9263H154.583C153.343 50.9262 152.154 50.4171 151.278 49.511C150.401 48.6047 149.909 47.3757 149.909 46.0942C148.882 47.7231 147.466 49.0502 145.797 49.9467C143.911 50.9578 141.81 51.4629 139.686 51.4159C137.089 51.4418 134.54 50.6868 132.351 49.2429C130.079 47.7298 128.261 45.5912 127.102 43.0679C125.822 40.3974 125.182 37.3086 125.182 33.8015C125.182 30.2945 125.822 27.2172 127.102 24.5697ZM147.829 27.6877C147.168 26.9741 146.375 26.4057 145.497 26.0167C144.619 25.6273 143.674 25.4252 142.719 25.4224C141.763 25.4196 140.817 25.616 139.936 26C139.056 26.3838 138.259 26.9475 137.595 27.6572C136.194 29.1467 135.493 31.1948 135.493 33.8015C135.493 36.4083 136.194 38.4781 137.595 40.011C138.25 40.7336 139.042 41.3103 139.92 41.7057C140.799 42.1009 141.747 42.3062 142.706 42.3091C143.664 42.3118 144.613 42.1121 145.494 41.7221C146.375 41.3322 147.169 40.7604 147.829 40.0416C149.227 38.5342 149.928 36.4746 149.928 33.8628C149.928 31.251 149.227 29.1926 147.829 27.6877Z" fill="#004882"/>
</g>
<defs>
<clipPath id="clip0_549_2135">
<rect width="211.05" height="66.3976" fill="white" transform="translate(0.960938 0.895264)"/>
</clipPath>
</defs>
</svg>
