<svg width="241" height="62" viewBox="0 0 241 62" fill="none" xmlns="http://www.w3.org/2000/svg">
<g clip-path="url(#clip0_549_2119)">
<path d="M48.9209 23.3988H58.4401V13.7485H48.9209V23.3988Z" fill="#322B31"/>
<path d="M0 47.3959H9.00061V37.7456H0V47.3959Z" fill="#322B31"/>
<path d="M11.6104 61.3513H21.2634V26.0081H11.6104V61.3513Z" fill="#9C7161"/>
<path d="M36.6572 61.3512H46.3103V50.005H36.6572V61.3512Z" fill="#9C7161"/>
<path d="M0 23.3988H34.0484V13.7485H0V23.3988Z" fill="#322B31"/>
<path d="M36.6572 35.1365H46.3103V0.836914H36.6572V35.1365Z" fill="#9C7161"/>
<path d="M23.873 47.3959H58.4401V37.7456H23.873V47.3959Z" fill="#322B31"/>
<path d="M105.588 38.418L101.272 27.8846L96.9556 38.418H105.588ZM98.0698 19.298H104.661L118.584 52.0154H111.119L108.148 44.73H94.3893L91.4281 52.0154H84.1406L98.0698 19.298Z" fill="#322B31"/>
<path d="M137.987 35.307C139.751 35.307 141.105 34.8889 142.049 34.0526C142.518 33.6346 142.888 33.1177 143.133 32.5393C143.377 31.9608 143.491 31.3352 143.464 30.7077V30.6073C143.464 29.0597 142.969 27.9001 141.978 27.1285C140.988 26.3569 139.611 25.97 137.846 25.9678H130.743V35.2936L137.987 35.307ZM123.599 19.5287H138.452C142.567 19.5287 145.724 20.627 147.921 22.8235C149.777 24.6789 150.705 27.1542 150.705 30.2494V30.343C150.705 32.9722 150.062 35.1141 148.777 36.7688C147.478 38.4352 145.731 39.6984 143.742 40.4115L151.678 52.0153H143.313L136.35 41.6224H130.743V52.0153H123.596L123.599 19.5287Z" fill="#322B31"/>
<path d="M157.48 52.012H164.627V19.5321H157.48V52.012Z" fill="#322B31"/>
<path d="M188.411 52.5706C186.039 52.6005 183.683 52.1747 181.472 51.3162C179.461 50.5315 177.63 49.3482 176.088 47.8374C174.573 46.3309 173.381 44.5315 172.585 42.549C171.732 40.4227 171.306 38.1497 171.33 35.859V35.7654C171.3 32.4628 172.255 29.2261 174.074 26.4691C175.893 23.7121 178.493 21.5601 181.542 20.2881C183.702 19.3837 186.023 18.9284 188.364 18.9501C189.693 18.9402 191.02 19.0409 192.333 19.2511C193.463 19.437 194.574 19.7247 195.652 20.1108C196.656 20.4741 197.621 20.9404 198.529 21.5023C199.442 22.0707 200.311 22.707 201.129 23.4056L196.625 28.8345C196.037 28.3317 195.416 27.867 194.768 27.443C194.158 27.0459 193.513 26.7045 192.841 26.4228C192.145 26.1356 191.422 25.9182 190.683 25.7739C189.842 25.6135 188.987 25.5362 188.13 25.5431C186.87 25.5341 185.624 25.8121 184.486 26.3559C183.367 26.891 182.359 27.6333 181.515 28.5435C180.648 29.4756 179.967 30.5643 179.508 31.7514C179.022 33.0045 178.778 34.338 178.788 35.6817V35.7754C178.773 37.1805 179.017 38.5764 179.508 39.8931C179.963 41.1108 180.657 42.2253 181.549 43.1712C182.425 44.0983 183.483 44.835 184.657 45.3354C185.913 45.8594 187.264 46.1201 188.625 46.1014C191.286 46.1014 193.53 45.4469 195.357 44.1379V39.4549H188.164V33.3135H202.273V47.4193C200.475 48.9207 198.465 50.1482 196.308 51.062C193.808 52.104 191.119 52.6176 188.411 52.5706Z" fill="#322B31"/>
<path d="M227.803 38.4179L223.486 27.8845L219.17 38.4179H227.803ZM220.284 19.3013H226.889L240.798 52.0153H233.327L230.356 44.7299H216.617L213.646 52.0153H206.358L220.284 19.3013Z" fill="#322B31"/>
</g>
<defs>
<clipPath id="clip0_549_2119">
<rect width="240.798" height="60.5143" fill="white" transform="translate(0 0.836914)"/>
</clipPath>
</defs>
</svg>
