<svg width="48" height="49" viewBox="0 0 48 49" fill="none" xmlns="http://www.w3.org/2000/svg">
<path d="M24 34.1881C24.5667 34.1881 25.042 33.9961 25.426 33.6121C25.8087 33.2294 26 32.7548 26 32.1881C26 31.6214 25.8087 31.1461 25.426 30.7621C25.042 30.3794 24.5667 30.1881 24 30.1881C23.4333 30.1881 22.9587 30.3794 22.576 30.7621C22.192 31.1461 22 31.6214 22 32.1881C22 32.7548 22.192 33.2294 22.576 33.6121C22.9587 33.9961 23.4333 34.1881 24 34.1881ZM22 26.1881H26V14.1881H22V26.1881ZM10 42.1881C8.9 42.1881 7.958 41.7968 7.174 41.0141C6.39133 40.2301 6 39.2881 6 38.1881V10.1881C6 9.08811 6.39133 8.14611 7.174 7.36211C7.958 6.57944 8.9 6.18811 10 6.18811H18.4C18.8333 4.98811 19.5587 4.02144 20.576 3.28811C21.592 2.55478 22.7333 2.18811 24 2.18811C25.2667 2.18811 26.4087 2.55478 27.426 3.28811C28.442 4.02144 29.1667 4.98811 29.6 6.18811H38C39.1 6.18811 40.042 6.57944 40.826 7.36211C41.6087 8.14611 42 9.08811 42 10.1881V38.1881C42 39.2881 41.6087 40.2301 40.826 41.0141C40.042 41.7968 39.1 42.1881 38 42.1881H10ZM10 38.1881H38V10.1881H10V38.1881ZM24 8.68811C24.4333 8.68811 24.792 8.54611 25.076 8.26211C25.3587 7.97944 25.5 7.62144 25.5 7.18811C25.5 6.75478 25.3587 6.39611 25.076 6.11211C24.792 5.82944 24.4333 5.68811 24 5.68811C23.5667 5.68811 23.2087 5.82944 22.926 6.11211C22.642 6.39611 22.5 6.75478 22.5 7.18811C22.5 7.62144 22.642 7.97944 22.926 8.26211C23.2087 8.54611 23.5667 8.68811 24 8.68811ZM10 38.1881V10.1881V38.1881Z" fill="#FF0909"/>
</svg>
