<svg width="20" height="20" viewBox="0 0 20 20" fill="none" xmlns="http://www.w3.org/2000/svg">
<path d="M0.600006 4.56426C0.600006 3.51287 1.01767 2.50454 1.76112 1.76109C2.50457 1.01764 3.5129 0.599976 4.56429 0.599976H15.1357C16.1871 0.599976 17.1954 1.01764 17.9389 1.76109C18.6823 2.50454 19.1 3.51287 19.1 4.56426V15.1357C19.1 16.1871 18.6823 17.1954 17.9389 17.9389C17.1954 18.6823 16.1871 19.1 15.1357 19.1H4.56429C3.5129 19.1 2.50457 18.6823 1.76112 17.9389C1.01767 17.1954 0.600006 16.1871 0.600006 15.1357V4.56426ZM4.56429 1.9214C3.86336 1.9214 3.19114 2.19985 2.69551 2.69548C2.19988 3.19111 1.92143 3.86333 1.92143 4.56426V5.96233L9.18929 5.8923V1.9214H4.56429ZM10.5107 1.9214V12.4928H17.7786V4.56426C17.7786 3.86333 17.5001 3.19111 17.0045 2.69548C16.5089 2.19985 15.8366 1.9214 15.1357 1.9214H10.5107ZM17.7786 13.8143H10.5107V17.7785H15.1357C15.8366 17.7785 16.5089 17.5001 17.0045 17.0045C17.5001 16.5088 17.7786 15.8366 17.7786 15.1357V13.8143ZM9.18929 17.7785V7.21373L1.92143 7.28376V15.1357C1.92143 15.8366 2.19988 16.5088 2.69551 17.0045C3.19114 17.5001 3.86336 17.7785 4.56429 17.7785H9.18929Z" fill="#646464"/>
</svg>
