<svg width="222" height="58" viewBox="0 0 222 58" fill="none" xmlns="http://www.w3.org/2000/svg">
<g clip-path="url(#clip0_549_2162)">
<path d="M82.7734 45.3305V48.7999H76.0576V9.16016H82.7734V24.4095C84.3705 22.1526 87.3441 20.6103 90.9226 20.6103C99.1264 20.6103 104.024 26.4457 104.024 34.9247C104.024 43.4036 99.124 49.239 90.8111 49.239C87.4532 49.239 84.3705 47.7535 82.7734 45.3305ZM97.3086 34.9247C97.3086 29.806 94.3351 26.4481 89.8216 26.4481C85.3079 26.4481 82.3345 29.806 82.3345 34.9271C82.3345 40.0481 85.3055 43.4036 89.8216 43.4036C94.3351 43.4036 97.3086 40.0457 97.3086 34.9247ZM134.416 48.7999H127.644V44.5047C126.101 47.5328 122.964 49.239 119.001 49.239C112.779 49.239 108.706 44.7253 108.706 38.228V21.0516H115.422V36.797C115.422 40.5962 117.791 43.2376 121.203 43.2376C125.002 43.2376 127.644 40.264 127.644 36.1894V21.0492H134.416V48.7999ZM138.985 39.5497H145.15C145.425 42.1933 147.461 43.8449 150.489 43.8449C153.133 43.8449 154.894 42.5233 154.894 40.8716C154.894 34.7062 139.699 40.5964 139.699 28.8708C139.699 24.0251 143.937 20.6127 149.663 20.6127C156.161 20.6127 160.62 24.1912 160.895 29.5851H154.73C154.345 26.9985 151.977 25.6768 149.83 25.6768C147.407 25.6768 145.81 26.7779 145.81 28.6502C145.81 34.6516 161.225 28.045 161.225 40.5964C161.225 45.8266 156.987 49.239 150.489 49.239C143.776 49.239 139.314 45.4966 138.985 39.5497ZM166.348 9.16016H173.064V25.3468C174.607 22.3189 177.799 20.6127 181.764 20.6127C187.986 20.6127 192.058 25.1262 192.058 31.6237V48.7999H185.343V33.0545C185.343 29.2554 182.974 26.6142 179.507 26.6142C175.763 26.6142 173.067 29.5875 173.067 33.6621V48.8023H166.351V9.16016H166.348ZM221.183 30.9616V48.7999H214.522V44.6708C213.367 47.4237 210.172 49.2414 206.209 49.2414C200.703 49.2414 196.959 45.7174 196.959 40.9285C196.959 35.532 201.143 32.1742 207.364 32.1742H212.486C213.862 32.1742 214.522 31.4029 214.522 30.3018C214.522 27.6037 212.429 25.6768 208.85 25.6768C205.272 25.6768 203.125 27.9335 203.015 30.411H196.959C197.289 24.9055 201.968 20.6127 209.181 20.6127C216.228 20.6103 221.183 24.6847 221.183 30.9616ZM214.522 37.0722V36.6309H208.3C205.439 36.6309 203.511 38.228 203.511 40.6509C203.511 42.7985 205.272 44.2295 207.807 44.2295C212.042 44.2295 214.522 41.2559 214.522 37.0722Z" fill="#000639"/>
<path d="M52.5769 57.531C51.9806 57.5322 51.39 57.414 50.8401 57.1835C50.2901 56.9531 49.7917 56.6149 49.3743 56.189L1.50011 8.34768C0.92474 7.70067 0.546215 6.90273 0.409111 6.04781C0.272006 5.1929 0.382032 4.31661 0.726231 3.52212C1.07043 2.72764 1.63447 2.04805 2.35194 1.56336C3.06941 1.07868 3.91043 0.809089 4.77597 0.786337C5.93615 0.755388 7.06423 1.16941 7.92895 1.94354L55.7793 49.7851C56.4103 50.4205 56.8396 51.2281 57.0133 52.1067C57.1867 52.9853 57.0966 53.8955 56.7545 54.7231C56.4123 55.5507 55.8333 56.2587 55.09 56.7584C54.3467 57.258 53.4723 57.5268 52.5767 57.531H52.5769ZM52.5805 29.9936C51.984 29.9921 51.3936 29.8726 50.8434 29.6421C50.2933 29.4115 49.7941 29.0744 49.3747 28.6502L29.0792 8.35584C28.6582 7.93492 28.3242 7.43519 28.0964 6.8852C27.8686 6.3352 27.7513 5.74571 27.7513 5.15039C27.7513 4.55507 27.8686 3.96557 28.0964 3.41558C28.3242 2.86558 28.6582 2.36585 29.0792 1.94493C29.5002 1.52395 30 1.19 30.55 0.962167C31.1 0.734331 31.6896 0.617065 32.2849 0.617065C32.8803 0.617065 33.4698 0.734331 34.0199 0.962167C34.5699 1.19 35.0697 1.52395 35.4907 1.94493L55.7864 22.2389C56.2112 22.6577 56.5484 23.1568 56.7786 23.7071C57.0089 24.2574 57.1274 24.848 57.1274 25.4445C57.1274 26.0411 57.0089 26.6316 56.7786 27.1819C56.5484 27.7323 56.2112 28.2313 55.7864 28.6502C55.3702 29.0786 54.8716 29.4184 54.3207 29.6493C53.7697 29.8802 53.1778 29.9973 52.5805 29.9936ZM25.0028 57.5711C24.4063 57.5693 23.816 57.4497 23.2658 57.2191C22.7156 56.9885 22.2164 56.6515 21.7968 56.2275L1.50131 35.9333C0.759412 35.1918 0.297651 34.2158 0.194731 33.1719C0.0918112 32.128 0.354103 31.0807 0.9369 30.2086C1.5197 29.3364 2.38693 28.6933 3.39077 28.3889C4.39462 28.0846 5.47295 28.1378 6.44197 28.5395C6.9921 28.7673 7.49196 29.1012 7.91302 29.5222L28.2084 49.8164C28.6332 50.2351 28.9705 50.7342 29.2007 51.2845C29.4309 51.8348 29.5494 52.4254 29.5494 53.0219C29.5494 53.6184 29.4308 54.209 29.2006 54.7593C28.9704 55.3096 28.6331 55.8087 28.2084 56.2275C27.7921 56.6559 27.2936 56.9957 26.7428 57.2266C26.1919 57.4575 25.6001 57.5747 25.0028 57.5711Z" fill="#16CB3E"/>
</g>
<defs>
<clipPath id="clip0_549_2162">
<rect width="221.045" height="56.954" fill="white" transform="translate(0.173828 0.617065)"/>
</clipPath>
</defs>
</svg>
