<svg width="48" height="49" viewBox="0 0 48 49" fill="none" xmlns="http://www.w3.org/2000/svg">
<path d="M21.0803 29.2481L16.8203 24.9881L14.7003 27.1081L21.0603 33.4681L33.0603 21.4681L30.9403 19.3481L21.0803 29.2481ZM34.6743 3.80811L43.8883 11.4981L41.3283 14.5681L32.1083 6.88211L34.6743 3.80811ZM13.3263 3.80811L15.8903 6.88011L6.67426 14.5681L4.11426 11.4961L13.3263 3.80811ZM24.0003 8.18811C19.2261 8.18837 14.6476 10.0852 11.2719 13.4612C7.89627 16.8372 5.99999 21.4159 6.00026 26.1901C6.00052 30.9643 7.89731 35.5428 11.2733 38.9184C14.6494 42.2941 19.2281 44.1904 24.0023 44.1901C26.3662 44.19 28.7069 43.7242 30.8909 42.8195C33.0748 41.9147 35.0591 40.5887 36.7306 38.917C38.4021 37.2454 39.7279 35.2609 40.6324 33.0769C41.5369 30.8928 42.0024 28.552 42.0023 26.1881C42.0021 23.8242 41.5364 21.4834 40.6316 19.2995C39.7269 17.1156 38.4008 15.1312 36.7292 13.4598C35.0575 11.7883 33.0731 10.4625 30.889 9.55797C28.705 8.65345 26.3642 8.18797 24.0003 8.18811ZM24.0003 40.1881C16.2803 40.1881 10.0003 33.9081 10.0003 26.1881C10.0003 18.4681 16.2803 12.1881 24.0003 12.1881C31.7203 12.1881 38.0003 18.4681 38.0003 26.1881C38.0003 33.9081 31.7203 40.1881 24.0003 40.1881Z" fill="#FE6E05"/>
</svg>
