<svg width="21" height="18" viewBox="0 0 21 18" fill="none" xmlns="http://www.w3.org/2000/svg">
<path d="M18.567 0.614777H2.17324C1.04617 0.614777 0.13427 1.53692 0.13427 2.66399L0.124023 14.9593C0.124023 16.0864 1.04617 17.0085 2.17324 17.0085H18.567C19.6941 17.0085 20.6162 16.0864 20.6162 14.9593V2.66399C20.6162 1.53692 19.6941 0.614777 18.567 0.614777ZM18.1571 4.96936L10.9132 9.49814C10.5853 9.70306 10.1549 9.70306 9.82707 9.49814L2.58308 4.96936C2.48034 4.91169 2.39038 4.83377 2.31862 4.74032C2.24687 4.64686 2.19482 4.53983 2.16563 4.42568C2.13645 4.31153 2.13072 4.19264 2.14881 4.07622C2.1669 3.9598 2.20842 3.84825 2.27087 3.74834C2.33331 3.64843 2.41538 3.56222 2.51211 3.49495C2.60883 3.42767 2.7182 3.38072 2.8336 3.35694C2.94899 3.33315 3.06801 3.33303 3.18346 3.35658C3.2989 3.38012 3.40837 3.42685 3.50523 3.49393L10.3701 7.78704L17.235 3.49393C17.3319 3.42685 17.4413 3.38012 17.5568 3.35658C17.6722 3.33303 17.7912 3.33315 17.9066 3.35694C18.022 3.38072 18.1314 3.42767 18.2281 3.49495C18.3248 3.56222 18.4069 3.64843 18.4694 3.74834C18.5318 3.84825 18.5733 3.9598 18.5914 4.07622C18.6095 4.19264 18.6038 4.31153 18.5746 4.42568C18.5454 4.53983 18.4934 4.64686 18.4216 4.74032C18.3498 4.83377 18.2599 4.91169 18.1571 4.96936Z" fill="#003F7D"/>
</svg>
