<svg width="25" height="25" viewBox="0 0 25 25" fill="none" xmlns="http://www.w3.org/2000/svg">
<path d="M12.8251 14.8322C13.5213 14.8322 14.189 14.5556 14.6812 14.0633C15.1735 13.571 15.4501 12.9034 15.4501 12.2072C15.4501 12.1303 15.4466 12.0541 15.44 11.9789L12.5968 14.8221C12.672 14.8286 12.748 14.8322 12.8251 14.8322ZM21.5138 4.08747L20.5126 3.08716C20.4774 3.05202 20.4298 3.03229 20.38 3.03229C20.3303 3.03229 20.2827 3.05202 20.2475 3.08716L17.6853 5.65005C16.2719 4.92771 14.6831 4.56654 12.9188 4.56654C8.41415 4.56654 5.05321 6.91263 2.83602 11.6048C2.7469 11.7935 2.70068 11.9996 2.70068 12.2083C2.70068 12.417 2.7469 12.6231 2.83602 12.8118C3.72196 14.6779 4.78876 16.1736 6.03641 17.299L3.55696 19.7775C3.52182 19.8126 3.50209 19.8603 3.50209 19.91C3.50209 19.9597 3.52182 20.0074 3.55696 20.0426L4.55751 21.0431C4.59267 21.0782 4.64034 21.098 4.69005 21.098C4.73975 21.098 4.78743 21.0782 4.82259 21.0431L21.5138 4.35279C21.5313 4.33537 21.5451 4.31469 21.5545 4.29193C21.564 4.26917 21.5688 4.24477 21.5688 4.22013C21.5688 4.19549 21.564 4.17109 21.5545 4.14833C21.5451 4.12557 21.5313 4.10489 21.5138 4.08747ZM8.70009 12.2072C8.70002 11.4947 8.8845 10.7943 9.23556 10.1743C9.58661 9.55433 10.0923 9.03583 10.7033 8.66934C11.3143 8.30285 12.0098 8.10087 12.722 8.08307C13.4343 8.06528 14.139 8.23227 14.7676 8.56779L13.6281 9.70732C13.1685 9.56017 12.6773 9.54245 12.2083 9.6561C11.7393 9.76975 11.3107 10.0104 10.9695 10.3516C10.6283 10.6928 10.3877 11.1214 10.274 11.5904C10.1604 12.0594 10.1781 12.5506 10.3252 13.0101L9.18571 14.1497C8.86593 13.5522 8.69909 12.8848 8.70009 12.2072Z" fill="#003F7D"/>
<path d="M23.0017 11.6025C22.1767 9.86497 21.1948 8.44818 20.0559 7.35208L16.6776 10.7306C16.9624 11.475 17.0255 12.286 16.8593 13.0655C16.6932 13.845 16.3049 14.5597 15.7413 15.1233C15.1777 15.6868 14.463 16.0752 13.6835 16.2413C12.904 16.4075 12.093 16.3444 11.3486 16.0596L8.48315 18.925C9.81253 19.5402 11.2911 19.8478 12.9189 19.8478C17.4236 19.8478 20.7846 17.5017 23.0017 12.8095C23.0909 12.6208 23.1371 12.4147 23.1371 12.206C23.1371 11.9973 23.0909 11.7912 23.0017 11.6025Z" fill="#003F7D"/>
</svg>
