<svg width="17" height="22" viewBox="0 0 17 22" fill="none" xmlns="http://www.w3.org/2000/svg">
<path d="M8.36997 0.575562C5.54512 0.575562 3.24692 2.87376 3.24692 5.69861V8.77243H2.22231C1.67883 8.77243 1.1576 8.98833 0.773297 9.37263C0.388995 9.75694 0.173096 10.2782 0.173096 10.8216V19.0185C0.173096 19.562 0.388995 20.0832 0.773297 20.4675C1.1576 20.8518 1.67883 21.0677 2.22231 21.0677H14.5176C15.0611 21.0677 15.5823 20.8518 15.9666 20.4675C16.3509 20.0832 16.5668 19.562 16.5668 19.0185V10.8216C16.5668 10.2782 16.3509 9.75694 15.9666 9.37263C15.5823 8.98833 15.0611 8.77243 14.5176 8.77243H13.493V5.69861C13.493 2.87376 11.1948 0.575562 8.36997 0.575562ZM5.29614 5.69861C5.29614 4.0039 6.67526 2.62478 8.36997 2.62478C10.0647 2.62478 11.4438 4.0039 11.4438 5.69861V8.77243H5.29614V5.69861ZM9.39457 16.6855V19.0185H7.34536V16.6855C6.98714 16.4804 6.6995 16.1715 6.52037 15.7996C6.34124 15.4277 6.27903 15.0102 6.34194 14.6022C6.40485 14.1942 6.58993 13.8149 6.87277 13.5143C7.15561 13.2136 7.52294 13.0057 7.92631 12.918C8.22592 12.8518 8.53659 12.8536 8.83539 12.9234C9.13419 12.9932 9.41352 13.1292 9.65276 13.3214C9.892 13.5135 10.0851 13.7569 10.2177 14.0336C10.3504 14.3103 10.4192 14.6132 10.4192 14.9201C10.4186 15.2784 10.3236 15.6303 10.1437 15.9402C9.96382 16.2502 9.70543 16.5072 9.39457 16.6855Z" fill="#003F7D"/>
</svg>
