<svg width="305" height="66" viewBox="0 0 305 66" fill="none" xmlns="http://www.w3.org/2000/svg">
<g clip-path="url(#clip0_549_2155)">
<path fill-rule="evenodd" clip-rule="evenodd" d="M32.9587 65.4922C50.8517 65.4922 65.3568 50.9871 65.3568 33.094C65.3568 15.201 50.8517 0.695923 32.9587 0.695923C15.0657 0.695923 0.560547 15.201 0.560547 33.094C0.560547 50.9871 15.0657 65.4922 32.9587 65.4922ZM21.1308 27.4372C22.3132 27.4372 23.4707 27.0975 24.4657 26.4586C25.4606 25.8196 26.2509 24.9082 26.7428 23.8329C27.2346 22.7576 27.4071 21.5637 27.2398 20.3931C27.0725 19.2226 26.5725 18.1248 25.7992 17.2303C28.3915 15.8248 31.2945 15.0908 34.2433 15.0951C36.8886 15.0951 39.3972 15.6731 41.6517 16.7099C41.0369 17.2725 40.5425 17.9539 40.1983 18.7128C39.8541 19.4717 39.6671 20.2925 39.6487 21.1256C39.6303 21.9588 39.7808 22.787 40.0912 23.5604C40.4016 24.3338 40.8654 25.0363 41.4547 25.6255C42.0439 26.2148 42.7464 26.6786 43.5198 26.989C44.2932 27.2994 45.1214 27.4499 45.9546 27.4315C46.7877 27.4131 47.6085 27.2261 48.3674 26.8819C49.1263 26.5377 49.8077 26.0433 50.3703 25.4285C51.4385 27.752 51.9898 30.2797 51.9861 32.8369C51.9861 42.6356 44.0429 50.5788 34.2443 50.5788C24.4457 50.5788 16.5025 42.6356 16.5025 32.8369C16.5025 30.567 16.9283 28.3958 17.7058 26.4005C18.7193 27.0784 19.9115 27.4393 21.1308 27.4372ZM50.3703 25.4296C48.5949 21.578 45.5032 18.4864 41.6517 16.7109C42.8241 15.6377 44.3655 15.0583 45.9546 15.0934C47.5437 15.1285 49.0579 15.7754 50.1819 16.8994C51.3058 18.0233 51.9527 19.5376 51.9878 21.1266C52.0229 22.7157 51.4435 24.2571 50.3703 25.4296ZM25.7992 17.2303C22.1033 19.2355 19.2362 22.484 17.7058 26.4005C16.9738 25.9117 16.3548 25.2719 15.8904 24.5242C15.426 23.7765 15.127 22.938 15.0133 22.0652C14.8997 21.1923 14.9741 20.3052 15.2315 19.4635C15.489 18.6218 15.9235 17.8449 16.5059 17.1849C17.0884 16.525 17.8053 15.9973 18.6085 15.6372C19.4117 15.2772 20.2827 15.0931 21.1629 15.0974C22.0431 15.1017 22.9122 15.2942 23.7118 15.6621C24.5115 16.03 25.2232 16.5647 25.7992 17.2303Z" fill="black"/>
<path d="M93.6567 24.398C91.4826 22.7074 88.808 21.788 86.0539 21.7845C79.2658 21.7845 73.7334 27.3169 73.7334 34.1051C73.7334 40.8933 79.2658 46.4256 86.0539 46.4256C89.0407 46.4256 91.79 45.3395 93.9282 43.5746L90.8736 40.0787C86.3934 43.4728 79.0282 40.7914 79.0282 34.1051C79.0282 27.7242 85.9861 24.941 90.602 27.9278L93.6567 24.398ZM108.136 26.9096V22.1579H98.3272V26.9096H100.873V41.1987H98.3272V45.9505H108.136V41.1987H105.624V26.9096H108.136ZM112.207 22.124V45.9165H116.959V31.2541L119.335 36.3791V36.4131L123.781 45.9505H128.838L123.883 35.7682C126.835 35.2591 128.702 32.1705 128.702 29.2855C128.702 25.3483 125.512 22.124 121.575 22.124H112.207ZM119.538 26.8757H121.575C122.898 26.8757 123.95 27.9618 123.95 29.2855C123.952 29.8616 123.742 30.4182 123.36 30.8499C122.979 31.2815 122.452 31.5582 121.88 31.6274L119.538 26.8757ZM151.297 24.398C149.122 22.7074 146.448 21.788 143.694 21.7845C136.906 21.7845 131.373 27.3169 131.373 34.1051C131.373 40.8933 136.906 46.4256 143.694 46.4256C146.681 46.4256 149.43 45.3395 151.568 43.5746L148.513 40.0787C144.033 43.4728 136.668 40.7914 136.668 34.1051C136.668 27.7242 143.626 24.941 148.242 27.9278L151.297 24.398ZM160.719 22.1579H155.967V45.9165H169.577V41.1987H160.719V22.1579ZM189.186 22.1579H173.336V45.9505H189.084V41.1987H178.087V36.0397H187.251V31.288H178.087V26.9096H189.186V22.1579ZM193.519 22.1579V45.9505H198.271V36.447H201.224C203.114 36.447 204.927 35.6961 206.264 34.3594C207.6 33.0227 208.351 31.2098 208.351 29.3194C208.351 25.3823 205.161 22.1579 201.224 22.1579H193.519ZM198.271 31.6953V26.9096H201.224C202.513 26.9096 203.599 27.9957 203.599 29.3194C203.598 29.949 203.347 30.5522 202.902 30.9973C202.456 31.4425 201.853 31.6934 201.224 31.6953H198.271ZM221.523 22.1579H220.132L208.66 44.6946V45.9505H232.181V44.6946L221.523 22.1579ZM215.753 41.1987L220.709 31.4916L225.257 41.1987H215.753ZM253.243 45.9505L239.87 32.0686V45.9505H235.118V22.1579H236.612L249.747 35.4627V22.1579H254.498V45.9505H253.243ZM258.917 22.1579V45.9165H260.852V45.9505H265.637C267.232 45.9505 268.794 45.645 270.253 45.0001C271.679 44.4231 272.935 43.5407 274.021 42.4546C275.125 41.3919 275.992 40.1081 276.566 38.6871C277.211 37.2277 277.517 35.6664 277.517 34.0372C277.517 32.442 277.211 30.8807 276.566 29.4212C275.989 27.9957 275.141 26.7399 274.021 25.6199C272.94 24.5374 271.661 23.6731 270.253 23.0743C268.791 22.465 267.222 22.1535 265.637 22.1579H258.917ZM265.637 26.9096C266.859 26.9096 268.013 27.2151 268.997 27.7581L263.669 39.332V26.9096H265.637ZM265.298 41.1987L270.864 29.1837C272.052 30.4395 272.765 32.1705 272.765 34.0372C272.765 37.9744 269.574 41.1987 265.637 41.1987H265.298ZM291.692 22.1579H290.3L278.828 44.6946V45.9505H302.349V44.6946L291.692 22.1579ZM285.922 41.1987L290.877 31.4916L295.425 41.1987H285.922Z" fill="black"/>
</g>
<defs>
<clipPath id="clip0_549_2155">
<rect width="304.44" height="64.7962" fill="white" transform="translate(0.560547 0.695923)"/>
</clipPath>
</defs>
</svg>
