<svg width="48" height="49" viewBox="0 0 48 49" fill="none" xmlns="http://www.w3.org/2000/svg">
<path d="M42 15.1881H33V9.18811C33 8.39246 32.6839 7.6294 32.1213 7.06679C31.5587 6.50418 30.7956 6.18811 30 6.18811H18C17.2044 6.18811 16.4413 6.50418 15.8787 7.06679C15.3161 7.6294 15 8.39246 15 9.18811V15.1881H6C5.20435 15.1881 4.44129 15.5042 3.87868 16.0668C3.31607 16.6294 3 17.3925 3 18.1881V39.1881C3 39.9838 3.31607 40.7468 3.87868 41.3094C4.44129 41.872 5.20435 42.1881 6 42.1881H42C42.7957 42.1881 43.5587 41.872 44.1213 41.3094C44.6839 40.7468 45 39.9838 45 39.1881V18.1881C45 17.3925 44.6839 16.6294 44.1213 16.0668C43.5587 15.5042 42.7957 15.1881 42 15.1881ZM18 9.18811H30V15.1881H18V9.18811ZM6 39.1881V18.1881H42V39.1881H6Z" fill="#003F7D"/>
</svg>
