<svg width="24" height="24" viewBox="0 0 24 24" fill="none" xmlns="http://www.w3.org/2000/svg">
<path d="M11.9999 15.83C9.88606 15.83 8.16992 14.1139 8.16992 12C8.16992 9.88614 9.88606 8.17 11.9999 8.17C14.1138 8.17 15.8299 9.88614 15.8299 12C15.8299 14.1139 14.1138 15.83 11.9999 15.83ZM11.9999 8.67C10.1638 8.67 8.66992 10.1639 8.66992 12C8.66992 13.8361 10.1638 15.33 11.9999 15.33C13.8361 15.33 15.3299 13.8361 15.3299 12C15.3299 10.1639 13.8361 8.67 11.9999 8.67Z" fill="#239ED9" stroke="#003F7D"/>
<path d="M2.67146 14.7308L2.67075 14.7297C2.2037 14.0027 1.95508 13.0172 1.95508 12.0037C1.95508 10.9907 2.20356 10.0021 2.67121 9.26953C5.05218 5.5574 8.45904 3.48 12.0001 3.48C15.5413 3.48 18.948 5.55758 21.3187 9.26915L21.3194 9.27025C21.7865 9.99726 22.0351 10.9828 22.0351 11.9963C22.0351 13.0095 21.7865 13.9983 21.3187 14.7309C18.9479 18.4424 15.5413 20.52 12.0001 20.52C8.44863 20.52 5.04205 18.4422 2.67146 14.7308ZM12.0001 3.98C8.55682 3.98 5.32506 6.04704 3.09877 9.54074C2.65861 10.2277 2.45758 11.1313 2.45758 12C2.45758 12.8684 2.6585 13.7718 3.0984 14.4587C5.3247 17.9527 8.55663 20.02 12.0001 20.02C15.4433 20.02 18.6751 17.953 20.9014 14.4593C21.3415 13.7723 21.5426 12.8687 21.5426 12C21.5426 11.1312 21.3415 10.2274 20.9012 9.54041C18.6749 6.04691 15.4432 3.98 12.0001 3.98Z" fill="#003F7D" stroke="#003F7D"/>
</svg>
