<svg width="182" height="182" viewBox="0 0 182 182" fill="none" xmlns="http://www.w3.org/2000/svg">
<path d="M86.3107 3.33926C87.9215 -1.01383 94.0785 -1.01382 95.6893 3.33927L117.211 61.5015C117.718 62.8701 118.797 63.9491 120.165 64.4555L178.327 85.9775C182.681 87.5883 182.681 93.7452 178.327 95.356L120.165 116.878C118.797 117.384 117.718 118.463 117.211 119.832L95.6893 177.994C94.0785 182.347 87.9215 182.347 86.3107 177.994L64.7888 119.832C64.2824 118.463 63.2033 117.384 61.8347 116.878L3.67251 95.356C-0.680577 93.7452 -0.680564 87.5883 3.67253 85.9775L61.8347 64.4555C63.2033 63.9491 64.2824 62.8701 64.7888 61.5015L86.3107 3.33926Z" fill="#FF5004"/>
</svg>
