<svg width="18" height="18" viewBox="0 0 18 18" fill="none" xmlns="http://www.w3.org/2000/svg">
<path d="M18 14.75C18 15.612 17.6576 16.4386 17.0481 17.0481C16.4386 17.6576 15.612 18 14.75 18H3.25C2.38805 18 1.5614 17.6576 0.951903 17.0481C0.34241 16.4386 0 15.612 0 14.75V3.25C0 2.38805 0.34241 1.5614 0.951903 0.951903C1.5614 0.34241 2.38805 0 3.25 0H14.75C15.612 0 16.4386 0.34241 17.0481 0.951903C17.6576 1.5614 18 2.38805 18 3.25V14.75ZM14.75 16.5C15.2141 16.5 15.6592 16.3156 15.9874 15.9874C16.3156 15.6592 16.5 15.2141 16.5 14.75V3.25C16.5 2.78587 16.3156 2.34075 15.9874 2.01256C15.6592 1.68437 15.2141 1.5 14.75 1.5H12.5V16.5H14.75ZM7 1.5V5.5H11V1.5H7ZM5.5 1.5H3.25C2.78587 1.5 2.34075 1.68437 2.01256 2.01256C1.68437 2.34075 1.5 2.78587 1.5 3.25V5.5H5.5V1.5ZM5.5 7H1.5V11H5.5V7ZM7 11H11V7H7V11ZM7 12.5V16.5H11V12.5H7ZM5.5 12.5H1.5V14.75C1.5 15.716 2.284 16.5 3.25 16.5H5.5V12.5Z" fill="#B3B3B3"/>
</svg>
