<svg width="48" height="49" viewBox="0 0 48 49" fill="none" xmlns="http://www.w3.org/2000/svg">
<g clip-path="url(#clip0_554_2370)">
<path d="M42.7504 48.1881C42.0607 48.1902 41.3774 48.0553 40.7401 47.7914C40.1028 47.5275 39.5243 47.1397 39.0379 46.6506L32.8459 40.4586C31.0888 40.8466 29.2586 40.7405 27.5581 40.1519C25.8576 39.5634 24.3533 38.5155 23.2119 37.1244C22.0706 35.7332 21.3367 34.0532 21.0917 32.2705C20.8467 30.4878 21.1001 28.6721 21.8239 27.0246L22.7059 25.0146L28.9399 31.2486C29.2254 31.5213 29.6049 31.6734 29.9997 31.6734C30.3944 31.6734 30.7739 31.5213 31.0594 31.2486C31.1989 31.1096 31.3097 30.9443 31.3852 30.7624C31.4608 30.5805 31.4998 30.3855 31.5 30.1885C31.5001 29.9915 31.4614 29.7964 31.3861 29.6143C31.3107 29.4323 31.2002 29.2669 31.0609 29.1276L24.8269 22.8921L26.8369 22.0101C28.4845 21.2868 30.3002 21.0338 32.0828 21.2791C33.8654 21.5244 35.5453 22.2584 36.9363 23.3998C38.3274 24.5413 39.3752 26.0455 39.9638 27.7459C40.5524 29.4464 40.6587 31.2765 40.2709 33.0336L46.4629 39.2256C47.1972 39.9599 47.6973 40.8954 47.8999 41.9138C48.1025 42.9323 47.9985 43.9879 47.6011 44.9473C47.2037 45.9066 46.5308 46.7266 45.6674 47.3035C44.8039 47.8804 43.7888 48.1882 42.7504 48.1881ZM33.7054 37.0746L41.1604 44.5296C41.5888 44.9386 42.1582 45.1668 42.7504 45.1668C43.3426 45.1668 43.9121 44.9386 44.3404 44.5296C44.5496 44.3209 44.7156 44.073 44.8289 43.8C44.9421 43.527 45.0004 43.2344 45.0004 42.9389C45.0004 42.6434 44.9421 42.3507 44.8289 42.0778C44.7156 41.8048 44.5496 41.5569 44.3404 41.3481L36.8869 33.8931L37.1689 33.0186C37.4984 32.0059 37.5834 30.9296 37.4169 29.8778C37.2504 28.8259 36.8371 27.8284 36.211 26.967C35.5849 26.1056 34.7636 25.4047 33.8145 24.9217C32.8654 24.4387 31.8154 24.1873 30.7504 24.1881C30.6244 24.1881 30.4994 24.1916 30.3754 24.1986L33.1834 27.0066C34.027 27.8505 34.5009 28.9949 34.5009 30.1881C34.5009 31.3814 34.027 32.5258 33.1834 33.3696C32.3262 34.1882 31.1865 34.6449 30.0012 34.6449C28.8159 34.6449 27.6762 34.1882 26.8189 33.3696L24.0109 30.5616C24.0039 30.6866 24.0004 30.8121 24.0004 30.9381C23.9996 32.0033 24.251 33.0535 24.7341 34.0028C25.2171 34.9521 25.9182 35.7735 26.7797 36.3997C27.6413 37.026 28.6389 37.4394 29.6909 37.6059C30.743 37.7725 31.8195 37.6876 32.8324 37.3581L33.7054 37.0746Z" fill="#3AD005"/>
<path d="M37.5 7.68811H33V6.18811C32.9976 5.39319 32.6808 4.63151 32.1187 4.06941C31.5566 3.50732 30.7949 3.19048 30 3.18811H18C17.2051 3.19048 16.4434 3.50732 15.8813 4.06941C15.3192 4.63151 15.0024 5.39319 15 6.18811V7.68811H10.5C9.70508 7.69048 8.9434 8.00732 8.3813 8.56941C7.81921 9.13151 7.50237 9.89319 7.5 10.6881V42.1881C7.50237 42.983 7.81921 43.7447 8.3813 44.3068C8.9434 44.8689 9.70508 45.1857 10.5 45.1881H21V42.1881H10.5V10.6881H15V15.1881H33V10.6881H37.5V18.1881H40.5V10.6881C40.4976 9.89319 40.1808 9.13151 39.6187 8.56941C39.0566 8.00732 38.2949 7.69048 37.5 7.68811ZM30 12.1881H18V6.18811H30V12.1881Z" fill="#3AD005"/>
</g>
<defs>
<clipPath id="clip0_554_2370">
<rect width="48" height="48" fill="white" transform="translate(0 0.18811)"/>
</clipPath>
</defs>
</svg>
