<svg width="20" height="20" viewBox="0 0 20 20" fill="none" xmlns="http://www.w3.org/2000/svg">
<path d="M2.05 2.83508H17.895M5.77 5.72008H17.895M5.77 12.7451H17.895M5.77 16.4551H17.895M17.895 10.0001H2.05M18.275 0.750076H1.725C1.46414 0.7566 1.21616 0.864829 1.034 1.05166C0.851837 1.2385 0.749918 1.48913 0.75 1.75008V18.3001C0.75 18.5653 0.855357 18.8196 1.04289 19.0072C1.23043 19.1947 1.48478 19.3001 1.75 19.3001H18.3C18.5652 19.3001 18.8196 19.1947 19.0071 19.0072C19.1946 18.8196 19.3 18.5653 19.3 18.3001V1.72508C19.2968 1.59374 19.2677 1.46433 19.2144 1.34425C19.1611 1.22416 19.0847 1.11574 18.9895 1.0252C18.8943 0.934653 18.7822 0.863751 18.6596 0.816545C18.537 0.769338 18.4063 0.746752 18.275 0.750076V0.750076ZM2.05 4.72008H4.05V6.72008H2.05V4.72008ZM4.05 13.7201H2.05V11.7201H4.05V13.7201ZM2.05 15.4401H4.05V17.4401H2.05V15.4401Z" stroke="#B3B3B3" stroke-linecap="round" stroke-linejoin="round"/>
</svg>
